<?xml version="1.0" encoding="UTF-8"?>
<!DOCTYPE svg PUBLIC "-//W3C//DTD SVG 1.1//EN" "http://www.w3.org/Graphics/SVG/1.1/DTD/svg11.dtd">
<!-- Creator: CorelDRAW 2020 (64 Bit) -->
<svg xmlns="http://www.w3.org/2000/svg" xml:space="preserve" width="207.855mm" height="192.684mm" version="1.1" style="shape-rendering:geometricPrecision; text-rendering:geometricPrecision; image-rendering:optimizeQuality; fill-rule:evenodd; clip-rule:evenodd"
viewBox="0 0 2777.4 2574.68"
 xmlns:xlink="http://www.w3.org/1999/xlink"
 xmlns:xodm="http://www.corel.com/coreldraw/odm/2003">
 <defs>
  <style type="text/css">
   <![CDATA[
    .fil0 {fill:#2F3130}
    .fil6 {fill:#4B4B48}
    .fil4 {fill:#66DBB3}
    .fil5 {fill:#6C6B68}
    .fil3 {fill:#7D4F35}
    .fil2 {fill:#9D6944}
    .fil1 {fill:#CB9461}
   ]]>
  </style>
 </defs>
 <g id="Camada_x0020_1">
  <metadata id="CorelCorpID_0Corel-Layer"/>
  <path class="fil0" d="M491.17 368.53c-227.13,0 -190.03,208.68 -220.12,373.82 -13.32,73.1 -91.28,64.36 -201.34,222.91 -26.09,37.59 -43.07,66.64 -53.53,116.17 -30.48,144.22 -15.53,423.9 25.33,547.56 25.93,78.48 74.09,161.57 149.43,199.4 75.1,37.71 91.61,1.41 119.68,54.73 20.14,38.26 51.14,65.6 82.98,91.43 143.25,116.23 328.83,83.7 490.05,49.78 18.36,-3.86 56.5,-13.85 69.48,-20.08 -1.31,58.97 -65.99,307.1 -65.99,509.1 0,65.36 337.93,61.28 400.68,61.28 81.82,0 179.64,-10.86 250.55,-22.86 102.71,-17.38 131.53,-25.64 228.36,-49.76 39.07,-9.73 67.04,-20.61 103.83,-32.87 145.85,-48.59 247.74,-99.82 378,-178.24 127.45,-76.72 243.99,-169.07 357.75,-264.48 15.11,-12.67 19.9,-20.31 37.11,-33.6 20.26,-15.65 133.98,-125.31 133.98,-144.14 0,-16.69 -106.24,-260.87 -115.83,-284.85 -20.18,-50.45 -36.92,-94.81 -56.58,-146.12 -70.33,-183.54 -147.58,-423.34 -199.99,-610.8 -7.24,-25.89 -42.42,-142.84 -42.42,-160.27 0,-11.22 53.9,-59.12 81.44,-116.54 51.87,-108.14 67.55,-252.54 -25.95,-344.34 -93.66,-91.96 -234.04,-79.23 -343.09,-24.7 -22.57,11.29 -41.43,23.8 -61.21,37.78 -9.43,6.66 -19.76,14.23 -29.59,22.26l-10.06 8.79c-0.76,0.62 -1.77,1.56 -2.56,2.15 -47.76,35.7 -42.96,-49.04 -48.45,-74.56 -6.84,-31.74 -16.25,-55.19 -32.68,-80.45 -78.84,-121.23 -269.03,-87.64 -375.11,19.32 -10.16,10.24 -18.49,15.06 -27.34,24.52 -8.67,9.27 -15.05,18.8 -22.76,29.09 -15.65,20.86 -26.65,16.26 -78.67,20.32 -34.88,2.72 -58.65,2.1 -92.7,6.29 -164.95,20.3 -334.22,55.41 -483.46,119.92 -45.09,19.49 -95.82,39.23 -135.1,62.88 -27.65,16.65 -39.71,17.38 -84.88,13.62 -31.86,-2.66 -60.55,-4.47 -99.24,-4.47z"/>
  <path class="fil1" d="M183.59 1276.01l18.23 119.75c36.02,75.48 34.7,117.75 85.97,222.19l66.68 103.58c41.62,29.84 2.79,19.96 77.96,59.02 121.07,62.92 257.11,21.32 373.97,-22.07 34.39,-12.77 66.66,-46 105.86,-44.76 7.64,10.26 14,14.83 11.38,29.92 -4.18,24.08 -29.53,38.85 -39.87,50 -33.81,36.47 -23.82,17.02 -51.07,38.38 -58.72,46.04 -175.87,62.78 -247.12,67.23 -70.47,4.39 -99.15,-6 -160.37,-25.83l24.88 26.14c105.82,87.94 310.32,64.13 429.56,26.59 47.57,-14.97 100.8,-33.37 144.66,-43.91 146.09,-35.12 190.54,-28.88 338.93,-32.79 64.11,-1.69 121.73,-3.54 182.91,-6.87 56.14,-3.05 112.94,-17.21 168.78,-20.88 8.38,-8.17 99.34,-38.16 121,-46.79 47.31,-18.87 73.46,-35.86 110.06,-60.22 5.31,-9.3 -2.08,0.8 6.58,-7.38 19.95,-18.82 18.7,-8.15 50.33,-39.14 15.65,-15.33 22.28,-10.01 47.65,-41.93 11.73,-14.76 7.54,-14.18 21.84,-25.34l17.28 -20.49c22.58,-40.09 58.43,-71.75 89.58,-155.42 45.19,-121.39 28.35,-98.37 49.94,-208.4 17.57,-89.57 -4.99,-177.64 1.38,-254.08l-344.11 0.69c-36.17,-1.42 -1.34,26.96 -54.24,95.77 -23.83,31 -35.8,43.82 -85.68,65.65l9.64 6.65 -46.04 31.94c-10.41,6.78 -1.4,2.13 -14.82,8.45 -139.33,65.59 -446.98,-20.19 -574.25,-62.16l20.8 -4.43c-54.93,1.79 -115.47,-12.47 -158.44,-40.79l-88.19 -109.48c-68.22,-115.5 -0.14,-90.32 -281.06,-121.2 -27.65,-3.04 -61.59,-6.11 -90.03,-7.66 -56.54,-3.09 -136.28,-22.75 -175.33,3.66l-96.32 73.64c-3.03,2.81 -30.5,37.67 -48.33,50.59 -23.57,17.07 -24.09,21.25 -46.82,51.9 -15.71,21.19 -41.6,64.41 -41.97,90.1 14.74,12.22 22.02,9.05 38.6,24.95 3.47,3.33 2.86,3.31 6.71,7.17 43.02,43.11 39.29,110.82 22.91,148.07z"/>
  <path class="fil2" d="M1945.99 1714.69c-0.46,1.21 -1.63,1.56 -1.96,3.34l-5.94 8.64c-3.24,4.51 -9.6,32.74 -41.18,57.3 -39.17,30.47 -83.23,104.69 -112.97,122.59 -37.05,22.3 -6.07,2.62 -35.64,30.08l-123.52 136c-16.64,13.49 -11.39,0.62 -27.87,19.05l-87.09 96.78c-61.43,90.82 -48.6,26.14 -90.99,97.72 -22.42,37.86 -18.91,9.61 -43.99,45.46 -42.17,60.28 -21.29,19.31 -46.26,47.96 -11.44,13.12 -30.49,45.51 -40.54,53.85 -9.42,7.82 -4.46,0.97 -14.04,9.05l-35 35.1c-0.81,0.8 -2.06,2.17 -3.01,3.32 130.53,3.03 233.77,-10.45 359.56,-31.6l207.44 -52.42c20.81,-8.11 25.29,-10.75 47.77,-17.84 71.56,-22.59 245.4,-102.42 308.88,-143.99l137.65 -88.33c1.14,-0.79 7.22,-4.94 8.42,-5.69l104.58 -74.85c6.44,-4.46 0.61,-0.15 7.75,-6.34 0.73,-0.63 1.73,-1.6 2.45,-2.25l52.39 -41.95c29.31,-23.24 -1.71,-8.19 27.09,-24.59 44.4,-25.27 8.46,-10.96 36.28,-29.92 10.59,-7.22 8.39,-2.04 16.46,-11.97 9.88,-12.14 -3.68,-3.73 13.5,-19.09 13.25,-11.85 28.21,-12.68 38.62,-27.82 12.28,-17.85 -7.02,-1.15 30.22,-35.58 44.82,-41.44 37.17,-21 10.98,-79.37l-149.41 -373.98c-50.49,-150.32 -102.14,-292.62 -144.26,-447.99l-27.29 -1.73c-103.44,0.77 -387.9,-4.84 -438.6,-0.4l344.11 -0.69c-6.37,76.44 16.2,164.51 -1.38,254.08 -21.59,110.03 -4.75,87.01 -49.94,208.4 -31.15,83.67 -66.99,115.34 -89.58,155.42l-17.28 20.49c-14.3,11.16 -10.11,10.58 -21.84,25.34 -25.37,31.92 -32,26.6 -47.65,41.93 -31.63,30.99 -30.38,20.32 -50.33,39.14 -8.67,8.18 -1.27,-1.92 -6.58,7.38z"/>
  <path class="fil3" d="M1714.92 1821.7l77.1 -10.86c-15.57,7.63 -26.52,10.6 -42.85,18.53 -13.77,6.69 -22.17,16.5 -37.5,23.45 -28.92,13.11 -51.79,25.47 -78.79,39.5 -55.96,29.07 -105.88,51.86 -161.52,73.78 -113.47,44.71 -270.36,60.85 -415.43,44.11l-69.77 455.98c30.06,-1.46 149.49,16.92 249.84,14.73 0.95,-1.15 2.2,-2.52 3.01,-3.32l35 -35.1c9.58,-8.08 4.61,-1.23 14.04,-9.05 10.05,-8.34 29.1,-40.73 40.54,-53.85 24.97,-28.65 4.09,12.33 46.26,-47.96 25.08,-35.85 21.56,-7.6 43.99,-45.46 42.39,-71.58 29.57,-6.9 90.99,-97.72l87.09 -96.78c16.48,-18.43 11.23,-5.56 27.87,-19.05l123.52 -136c29.58,-27.46 -1.41,-7.78 35.64,-30.08 29.73,-17.9 73.8,-92.12 112.97,-122.59 31.58,-24.56 37.95,-52.79 41.18,-57.3l5.94 -8.64c0.33,-1.77 1.5,-2.13 1.96,-3.34 -36.61,24.36 -62.75,41.35 -110.06,60.22 -21.66,8.64 -112.62,38.63 -121,46.79z"/>
  <path class="fil4" d="M370.38 722.42c75.17,-4.48 267.73,20.65 352.77,26.34 152.95,10.24 179.77,19.4 240.75,136.58l33.06 61.71c13.55,22.81 21.57,30.9 59.73,33.77l363.15 13.81c61.83,-0.55 57.98,-78.86 59.89,-134.71 0.87,-25.52 2,-60.37 3.49,-86.41 5.33,-93.18 7.64,-83.93 -181.21,-98.87 -114.43,-9.05 -230.7,-23.43 -347.08,-31.04 -172.36,-11.26 -359.36,-33.76 -520.65,-43 -43.77,-2.51 -48.17,-16.9 -51.67,31.73 -2,27.81 -6.85,61.62 -12.24,90.08z"/>
  <path class="fil1" d="M2144.96 614.46l0 -5.25c-22.96,-12.56 -35.81,-23.41 -48.65,-40.7 -51.01,-68.64 -20.35,-118.2 16.47,-176.09 44.12,-69.36 147.4,-112.61 227.89,-97.6 17,1.61 31.51,9.55 42.5,16.69 -57.62,-147.52 -220.65,-106.36 -330.4,-21.95 -8.46,6.51 -4.86,4.57 -13.02,10.39 -43.7,31.19 -5.27,1.14 -49.11,45.51 -11.23,11.37 -56.29,74.42 -77.48,57.88 -12.6,-20.8 -4.23,-27.97 -4.53,-53.67 -78.49,-86.36 -428.64,-87.64 -555.15,-80.04 -122.45,7.35 -290.77,36.6 -406.95,77.96 -37.02,13.18 -86.89,28 -118.21,42.13 70.47,21.48 889.54,67.45 952.68,89.12 78.12,26.81 85.33,92.21 105.48,140.6l258.48 -4.99z"/>
  <path class="fil5" d="M392.68 586.6l14.63 -1.25c-11.05,-3.18 -4.83,0.11 -11.53,-4.69 7.04,-22.42 34.85,-44.23 55.47,-53.71 67.46,-31.01 213.98,-4.89 303.03,-0.93 64.4,2.86 140.37,11.09 203.66,17.13 102.19,9.76 566.34,43.12 599.12,69.84 39.12,31.9 16.27,134.8 15.47,191.04 -0.88,61.8 -10.67,153.52 -20.71,214.04l42.4 0.8c2.32,-4.55 1.8,-1.38 5.06,-13.72 1.19,-4.51 1.89,-8.5 2.6,-13.08 8.14,-52.37 11.31,-140 16.9,-194.58 31.01,-302.63 -7.17,-229.48 -208.44,-260.74l-112.54 -9.37c-32.25,-1.46 -76.63,-7.04 -111.55,-8.4 -38.46,-1.5 -72.11,-10.14 -109.59,-13.14l-335.92 -28.13c-73.76,-6.94 -155.02,-13.88 -230.73,-15.34 -125.14,-2.41 -102.12,46.72 -117.34,124.22z"/>
  <path class="fil6" d="M1877.07 872.9l446.52 0.1c-15.93,-41.09 -31.96,-132.24 -49.61,-158.72 -22.44,-6.73 -343.33,-4.39 -382.79,-1.01 -3.42,57.7 -6.7,105.51 -14.12,159.63z"/>
  <path class="fil3" d="M2144.96 609.22l0 5.25c45.43,0.34 99.15,-0.88 135.84,-30.54 23.56,-19.05 21.9,-13.83 38.09,-32.96l9.24 -9.73c0.98,-0.94 4,-3.39 4.95,-4.36l4.46 -4.82c35.74,-45.12 70,-180.65 45.63,-220.55 -10.99,-7.13 -25.5,-15.08 -42.5,-16.69l-13.48 6.36c-52.91,18.03 0.06,-8.24 -43.04,21.8l-25.45 21.59c-7.24,8.41 -8.86,7.74 -16.76,16.49 -27.36,30.32 -19.92,14.86 -32.01,33.96 -20.98,33.17 -23.62,21.34 -37.47,56.85 -12.38,31.77 -23.68,65.71 -26.53,100.31 -1.48,17.93 0.09,53.42 -0.98,57.03z"/>
  <path class="fil2" d="M201.82 1395.76l-18.23 -119.75c-42.28,-25.85 -35.64,-39.63 -83.66,-63.66 5.89,120.69 -6.02,181.41 20.46,322.45 17.59,93.72 22.35,104.72 65.11,166.53 20.16,29.13 25.62,29.91 71.06,43.36 -49.36,-129.38 -72.5,-187.02 -54.74,-348.93z"/>
  <path class="fil2" d="M1746.53 1124.62c-51.22,10.41 -97.56,0.7 -147.77,-1.26 -46.89,-1.83 -103.74,-3.56 -150.61,-9.61 -84.36,-10.89 -155.47,-4.4 -226.15,-5.8 -26.71,-0.53 -53.48,-3.03 -80.14,-2.88l-20.8 4.43c127.27,41.97 434.92,127.75 574.25,62.16 13.42,-6.32 4.41,-1.66 14.82,-8.45l46.04 -31.94 -9.64 -6.65z"/>
  <path class="fil0" d="M2144.96 609.22c1.07,-3.61 -0.5,-39.1 0.98,-57.03 2.86,-34.6 14.15,-68.54 26.53,-100.31 13.84,-35.51 16.48,-23.68 37.47,-56.85 12.09,-19.11 4.65,-3.64 32.01,-33.96 7.89,-8.75 9.52,-8.08 16.76,-16.49l25.45 -21.59c43.1,-30.03 -9.87,-3.77 43.04,-21.8l13.48 -6.36c-80.49,-15.01 -183.77,28.24 -227.89,97.6 -36.83,57.9 -67.49,107.45 -16.47,176.09 12.84,17.28 25.69,28.14 48.65,40.7z"/>
  <path class="fil0" d="M288.99 1268.11c46.24,14.07 86.1,-57.49 159.19,-36.55 112.83,32.34 92.12,-61.39 74.29,-83.54 -48.12,-59.78 -241.94,-35.78 -233.48,120.09z"/>
  <path class="fil2" d="M1570.67 165.86c18.15,22.02 8.93,9.52 70.27,15.98l194 31.15c-0.49,-34.7 -18.36,-72.41 -29.12,-84.26 -50.52,-55.66 -96.8,-40.48 -166.5,-7.58 -30.62,14.45 -22.5,17.39 -41.56,29l-27.09 15.71z"/>
 </g>
</svg>
