<svg xmlns="http://www.w3.org/2000/svg" xmlns:xlink="http://www.w3.org/1999/xlink" width="2000"
  zoomAndPan="magnify" viewBox="0 0 1500 1499.999933" height="2000"
  preserveAspectRatio="xMidYMid meet" version="1.0">
  <path
    d="M 1047.066406 196.394531 C 1031.855469 198.035156 1017.902344 203.558594 1005.597656 212.808594 C 989.460938 224.9375 981.402344 236 973.480469 256.886719 C 969.902344 266.3125 969.777344 269.597656 969.242188 368.28125 C 968.636719 480.410156 969.039062 486.386719 978.496094 505.289062 C 990.261719 528.800781 1009.222656 543.878906 1035.875 550.921875 L 1050.542969 554.796875 L 1050.542969 595.988281 C 1050.542969 641.335938 1051.429688 646.707031 1059.632812 650.945312 C 1067.511719 655.019531 1074.34375 652.761719 1087.039062 641.886719 C 1101.488281 629.507812 1177.917969 565.21875 1185 559.484375 L 1190.367188 555.140625 L 1282.527344 554.195312 C 1370.199219 553.296875 1375.214844 553.074219 1385.542969 549.597656 C 1399.964844 544.746094 1412.085938 536.753906 1422.167969 525.4375 C 1431.199219 515.304688 1440.351562 498.429688 1443.367188 486.347656 C 1446.125 475.296875 1447.777344 308.878906 1445.382812 282.992188 C 1443.230469 259.714844 1439.25 247.558594 1428.71875 232.113281 C 1419.441406 218.511719 1400.628906 204.636719 1384.515625 199.515625 C 1373.125 195.894531 1370.539062 195.832031 1215.65625 195.507812 C 1129.144531 195.324219 1053.277344 195.726562 1047.066406 196.394531 M 534.222656 224.652344 C 503.992188 232.804688 485.914062 260.828125 482.777344 304.40625 C 482.175781 312.773438 480.820312 320.261719 479.769531 321.050781 C 478.71875 321.839844 474.339844 323.445312 470.039062 324.621094 C 422.242188 337.691406 377.714844 356.324219 284.496094 402.25 C 171.527344 457.90625 150.640625 470.316406 122.386719 498.589844 C 79.765625 541.238281 65.089844 589.089844 70.300781 668.398438 C 73.433594 716.074219 83.136719 765.847656 95.582031 798.109375 C 111.269531 838.765625 130.699219 866.230469 159.796875 888.871094 C 192.25 914.121094 222.761719 926.589844 266.292969 932.382812 C 291.085938 935.683594 300.328125 935.5625 335.855469 931.453125 C 373.824219 927.058594 375.808594 927.78125 386.09375 949.753906 C 390.71875 959.628906 390.945312 961.292969 390.71875 983.605469 C 390.511719 1004.304688 389.550781 1011.472656 382.558594 1044.441406 L 371.128906 1098.324219 C 365.703125 1123.910156 362.277344 1153.914062 362.277344 1175.851562 C 362.277344 1199 364.265625 1204.8125 373.113281 1207.582031 C 376.234375 1208.558594 394.628906 1210.1875 413.984375 1211.203125 C 516.324219 1216.5625 614.152344 1209.640625 697.605469 1191.128906 C 870.746094 1152.726562 993.8125 1066.347656 1067.570312 931.457031 C 1077.453125 913.390625 1092.253906 878.386719 1092.253906 873.09375 C 1092.253906 867.550781 1090.488281 864.183594 1073.28125 836.957031 C 1039.152344 782.949219 1016.265625 742.089844 963.621094 641.179688 C 902.222656 523.488281 887.566406 497.667969 852.527344 445.46875 L 835.246094 419.726562 L 839.617188 412.691406 C 853.398438 390.503906 859.359375 371.246094 859.359375 348.882812 C 859.359375 319.886719 851.1875 297.789062 833.957031 280.175781 C 810.808594 256.519531 780.796875 250.984375 751.585938 264.984375 C 737.488281 271.742188 725.03125 283.359375 709.320312 304.40625 C 703.789062 311.8125 699.074219 317.875 698.835938 317.875 C 698.601562 317.875 691.414062 316.335938 682.859375 314.449219 C 674.304688 312.570312 657.527344 310.148438 645.578125 309.074219 C 633.628906 308 622.679688 306.523438 621.246094 305.796875 C 619.8125 305.066406 616.238281 296.246094 613.304688 286.195312 C 610.375 276.144531 605.867188 263.621094 603.292969 258.359375 C 589.113281 229.371094 563.347656 216.796875 534.222656 224.652344 M 1036.992188 230.765625 C 1031.933594 232.519531 1024.894531 236.285156 1021.351562 239.125 C 1012.914062 245.886719 1004.238281 260.445312 1001.882812 271.777344 C 1000.625 277.839844 1000.167969 313.871094 1000.503906 380.617188 L 1001.007812 480.394531 L 1005.082031 488.59375 C 1015.808594 510.175781 1029.574219 519.027344 1057.265625 522.144531 C 1082.871094 525.03125 1081.828125 523.136719 1081.828125 566.628906 C 1081.828125 589.960938 1082.429688 601.199219 1083.679688 601.199219 C 1086.898438 601.199219 1096.949219 593.042969 1161.839844 537.757812 L 1178.160156 523.851562 L 1273.816406 522.949219 C 1366.242188 522.082031 1369.777344 521.925781 1378.546875 518.355469 C 1392.613281 512.632812 1400.773438 505.148438 1407.210938 492.070312 L 1412.921875 480.476562 L 1413.410156 378.945312 C 1413.839844 290.0625 1413.554688 276.226562 1411.117188 267.855469 C 1406.40625 251.652344 1397.566406 240.535156 1383.375 232.984375 L 1374.6875 228.359375 L 1210.441406 227.960938 C 1054.890625 227.589844 1045.710938 227.734375 1036.992188 230.765625 M 541.933594 254.761719 C 535.5 256.023438 524.574219 266.933594 520.679688 275.992188 C 516.121094 286.582031 512.140625 310.269531 514.515625 312.644531 C 515.570312 313.703125 526.257812 313.058594 543.839844 310.875 C 559.054688 308.988281 573.933594 307.445312 576.910156 307.445312 C 585.558594 307.445312 586.558594 305.085938 583.082031 292.921875 C 576.066406 268.386719 564.164062 253.355469 552.097656 253.796875 C 548.546875 253.929688 543.972656 254.363281 541.933594 254.761719 M 774.511719 290.277344 C 754.125 294.039062 735.742188 316.003906 708.925781 368.632812 C 702.742188 380.773438 695.949219 391.921875 693.835938 393.402344 C 687.964844 397.515625 679.160156 396.808594 674.179688 391.828125 C 668.113281 385.761719 668.621094 377.710938 675.996094 363.066406 C 679.339844 356.421875 682.078125 349.921875 682.078125 348.617188 C 682.078125 343.902344 640.785156 338.757812 602.996094 338.761719 C 526.40625 338.773438 455.613281 356.484375 364.886719 398.328125 C 334.605469 412.292969 223.511719 467.804688 201.898438 479.765625 C 154.703125 505.890625 129.09375 530.324219 115.382812 562.3125 L 111.851562 570.554688 L 115.402344 578.8125 C 117.355469 583.355469 118.953125 590.328125 118.953125 594.308594 C 118.953125 606.371094 111.578125 617.882812 104.78125 616.433594 C 98.253906 615.039062 99.40625 671.796875 106.785156 715.09375 C 113.695312 755.65625 128.878906 804.570312 134.554688 804.570312 C 138.097656 804.570312 149.332031 797.996094 153.59375 793.429688 L 157.816406 788.90625 L 154.691406 771.96875 L 149.164062 741.996094 C 147.839844 734.824219 146.28125 720.355469 145.699219 709.839844 C 144.707031 691.914062 144.875 690.472656 148.359375 686.828125 C 155.359375 679.496094 167.074219 679.535156 171.902344 686.90625 C 173.398438 689.1875 175.988281 702.601562 178.023438 718.601562 C 185.613281 778.246094 187.996094 786.558594 199.773438 794.359375 C 208.5 800.148438 225.4375 807.304688 238.375 810.675781 C 251.234375 814.027344 280.003906 813.960938 294.46875 810.550781 C 319.046875 804.757812 348.652344 785.636719 360.539062 767.871094 C 375.011719 746.25 383.613281 742.207031 393.699219 752.289062 C 402.382812 760.980469 400.660156 768.046875 385.066406 787.675781 C 370.84375 805.574219 354.507812 818.707031 333.601562 829.046875 C 308.835938 841.292969 293.628906 844.859375 265.816406 844.945312 C 234.488281 845.042969 216.085938 839.777344 184.765625 821.761719 L 174.972656 816.125 L 168.253906 821.410156 C 164.558594 824.3125 158.996094 827.988281 155.886719 829.582031 C 152.78125 831.167969 150.238281 833.183594 150.238281 834.058594 C 150.238281 837.554688 178.902344 864.015625 192.476562 873.050781 C 210.8125 885.25 236.742188 895.601562 257.867188 899.152344 C 279.203125 902.742188 315.261719 902.675781 340.058594 899.003906 C 363.878906 895.480469 406.789062 895.117188 424.847656 898.289062 C 442.074219 901.316406 462.683594 908.929688 477.550781 917.765625 C 500.351562 931.3125 524.734375 960.378906 526.910156 976.601562 C 528.132812 985.714844 521.957031 992.3125 512.261719 992.257812 C 504.394531 992.210938 499.886719 988.886719 493.449219 978.390625 C 481.882812 959.523438 468.652344 947.574219 449.75 938.917969 C 433.574219 931.511719 412.683594 927.1875 412.683594 931.246094 C 412.683594 932.085938 413.867188 935.605469 415.3125 939.070312 C 425.789062 964.144531 425.292969 996.300781 413.589844 1050.523438 C 399.90625 1113.921875 395.855469 1136.910156 394.15625 1160.824219 C 393.367188 1172.003906 393.648438 1176.390625 395.226562 1177.367188 C 399.722656 1180.144531 479.617188 1181.800781 523.046875 1180.011719 C 573 1177.957031 594.957031 1176.121094 629.066406 1171.152344 C 823.5 1142.832031 959.140625 1060 1035.820312 922.765625 C 1051.847656 894.082031 1059.402344 875.941406 1057.125 871.605469 C 1056.089844 869.628906 1049.375 858.628906 1042.199219 847.15625 C 1010.886719 797.082031 987.480469 755.316406 946.253906 675.941406 C 872.714844 534.371094 843.3125 483.226562 814.492188 446.738281 L 811.25 442.628906 L 802.714844 448.703125 C 798.023438 452.042969 790.753906 456.503906 786.570312 458.613281 C 773.722656 465.082031 762.976562 460.640625 760.925781 448.019531 C 759.644531 440.132812 764.410156 434.308594 778.117188 427.007812 C 799.773438 415.46875 818.828125 392.515625 825.332031 370.140625 C 829.230469 356.707031 828.863281 337.503906 824.449219 324.335938 C 815.886719 298.808594 797.234375 286.082031 774.511719 290.277344 M 1071.796875 320.777344 C 1068.6875 322.027344 1064.445312 330.78125 1064.445312 335.945312 C 1064.445312 338.328125 1066.332031 342.472656 1068.640625 345.15625 L 1072.832031 350.03125 L 1203.773438 350.523438 C 1275.789062 350.792969 1336.492188 350.574219 1338.664062 350.042969 C 1347.515625 347.875 1352.125 337.210938 1348.40625 327.511719 C 1345.367188 319.601562 1345.421875 319.605469 1205.75 319.75 C 1133.289062 319.824219 1073.011719 320.289062 1071.796875 320.777344 M 1073.757812 401.269531 C 1064.984375 404.867188 1061.542969 418.195312 1067.488281 425.539062 C 1069.160156 427.601562 1073.65625 430.015625 1077.480469 430.902344 C 1087.105469 433.132812 1242.613281 433.054688 1250.671875 430.816406 C 1262.351562 427.570312 1266.300781 414.519531 1258.386719 405.316406 L 1254.195312 400.4375 L 1165.835938 400.089844 C 1117.242188 399.898438 1075.804688 400.429688 1073.757812 401.269531 M 526.523438 463.929688 C 504.136719 466.957031 481.476562 478.496094 463.539062 496 C 454.148438 505.164062 452.65625 507.480469 452.65625 512.90625 C 452.65625 517.796875 453.847656 520.199219 458.003906 523.695312 C 460.945312 526.171875 465.519531 528.195312 468.171875 528.195312 C 473.023438 528.195312 483.71875 521.464844 489.859375 514.546875 C 491.679688 512.492188 493.726562 510.816406 494.402344 510.816406 C 495.082031 510.816406 496.957031 514.273438 498.570312 518.5 C 502.324219 528.328125 514.554688 539.753906 523.023438 541.34375 C 531.980469 543.023438 544.179688 541.015625 551.144531 536.710938 C 557.429688 532.824219 565.613281 518.988281 565.652344 512.175781 C 565.691406 505.753906 567.617188 500.386719 569.878906 500.386719 C 571.035156 500.386719 576.929688 502.398438 582.976562 504.851562 C 594.875 509.6875 600.011719 509.453125 605.648438 503.820312 C 609.796875 499.667969 610.246094 488.917969 606.492188 483.5625 C 605.074219 481.53125 598.09375 477.449219 590.988281 474.488281 C 568.679688 465.203125 545.359375 461.382812 526.523438 463.929688 M 204.863281 581.894531 C 196.097656 585.878906 187.734375 595.777344 185.054688 605.347656 C 182.679688 613.832031 183.277344 627.59375 186.0625 628.507812 C 187.125 628.855469 191.40625 626.285156 195.582031 622.800781 C 206.191406 613.9375 209.675781 613 226.957031 614.351562 C 241.632812 615.5 242.21875 615.398438 246.566406 611.054688 C 255.476562 602.140625 250.898438 586.484375 237.773438 581 C 229.628906 577.597656 213.351562 578.039062 204.863281 581.894531 M 1420.054688 1299.601562 C 1414.703125 1310.160156 1406.300781 1318.578125 1396.84375 1322.851562 C 1392.785156 1324.6875 1389.457031 1326.507812 1389.457031 1326.898438 C 1389.457031 1327.285156 1392.785156 1329.082031 1396.84375 1330.886719 C 1407.824219 1335.765625 1414.804688 1342.449219 1419.988281 1353.050781 C 1422.539062 1358.265625 1424.855469 1362.53125 1425.136719 1362.53125 C 1425.417969 1362.53125 1427.292969 1359.128906 1429.308594 1354.96875 C 1433.75 1345.789062 1443.65625 1335.550781 1452.460938 1331.039062 C 1456.046875 1329.199219 1458.980469 1327.394531 1458.980469 1327.027344 C 1458.980469 1326.660156 1455.636719 1324.398438 1451.554688 1322.003906 C 1441.496094 1316.113281 1435.089844 1309.40625 1430.089844 1299.535156 C 1427.785156 1294.984375 1425.535156 1291.265625 1425.089844 1291.265625 C 1424.644531 1291.265625 1422.378906 1295.015625 1420.054688 1299.601562 "
    fill-opacity="1" fill-rule="evenodd" fill="currentColor" />
</svg>