<svg viewBox="0 0 100 100" xmlns="http://www.w3.org/2000/svg">
  <!-- Background circle (like React, Vue) -->
  <circle cx="50" cy="50" r="45" fill="#2D5A87" stroke="#1E3F5F" stroke-width="2"/>
  
  <!-- Capybara silhouette - simplified and geometric -->
  <g transform="translate(50,50)">
    <!-- Body - more geometric -->
    <ellipse cx="0" cy="8" rx="20" ry="12" fill="#FFFFFF"/>
    
    <!-- Head - circular like tech logos -->
    <circle cx="0" cy="-8" r="12" fill="#FFFFFF"/>
    
    <!-- Ears - small geometric shapes -->
    <ellipse cx="-7" cy="-15" rx="2.5" ry="4" fill="#FFFFFF"/>
    <ellipse cx="7" cy="-15" rx="2.5" ry="4" fill="#FFFFFF"/>
    
    <!-- Eyes - simple dots -->
    <circle cx="-4" cy="-10" r="1.5" fill="#2D5A87"/>
    <circle cx="4" cy="-10" r="1.5" fill="#2D5A87"/>
    
    <!-- Nose - minimalist -->
    <ellipse cx="0" cy="-5" rx="1" ry="0.7" fill="#2D5A87"/>
    
    <!-- Tech element - gear integrated into design -->
    <g transform="translate(18, -18)">
      <circle r="6" fill="#F39C12" stroke="#E67E22" stroke-width="1"/>
      <!-- Gear teeth - simplified -->
      <rect x="-1" y="-8" width="2" height="2" fill="#F39C12"/>
      <rect x="-1" y="6" width="2" height="2" fill="#F39C12"/>
      <rect x="-8" y="-1" width="2" height="2" fill="#F39C12"/>
      <rect x="6" y="-1" width="2" height="2" fill="#F39C12"/>
      <!-- Center -->
      <circle r="2" fill="#E67E22"/>
    </g>
    
    <!-- Memory/context symbol - brain waves -->
    <g transform="translate(-18, -10)" opacity="0.8">
      <path d="M0,0 Q5,-3 10,0 Q15,3 20,0" stroke="#E8F4FD" stroke-width="1.5" fill="none"/>
      <path d="M0,3 Q5,0 10,3 Q15,6 20,3" stroke="#E8F4FD" stroke-width="1.5" fill="none"/>
      <path d="M0,6 Q5,3 10,6" stroke="#E8F4FD" stroke-width="1.5" fill="none"/>
    </g>
  </g>  
</svg>